<svg xmlns="http://www.w3.org/2000/svg" xmlns:xlink="http://www.w3.org/1999/xlink" viewBox="0 0 48 48" fill="#FFFFFF">
  <path d="M24 8C16.522892 8 10.415747 13.720449 9.6523438 21L9 21C4.0472805 21 0 25.047281 0 30C0 34.952719 4.0472805 39 9 39L24 39L39 39C43.952719 39 48 34.952719 48 30C48 25.047281 43.952719 21 39 21L38.347656 21C37.584253 13.720449 31.477108 8 24 8 z M 24 11C30.369415 11 35.5 16.130585 35.5 22.5 A 1.50015 1.50015 0 0 0 37 24L39 24C42.331281 24 45 26.668719 45 30C45 33.331281 42.331281 36 39 36L24 36L9 36C5.6687195 36 3 33.331281 3 30C3 26.668719 5.6687195 24 9 24L11 24 A 1.50015 1.50015 0 0 0 12.5 22.5C12.5 16.130585 17.630585 11 24 11 z" fill="#FFFFFF" />
</svg>