<svg xmlns="http://www.w3.org/2000/svg" xmlns:xlink="http://www.w3.org/1999/xlink" viewBox="0 0 48 48" fill="#FFFFFF">
  <path d="M12.5 6C9.4802259 6 7 8.4802259 7 11.5L7 14.5C7 16.070005 7.6740852 17.490503 8.7421875 18.496094C7.6731192 19.500197 7 20.921493 7 22.5L7 25.5C7 27.076 7.6703281 28.496 8.7363281 29.5C7.6703281 30.504 7 31.924 7 33.5L7 36.5C7 39.532 9.467 42 12.5 42L28.017578 42C26.937578 41.191 26.028609 40.173 25.349609 39L12.5 39C11.122 39 10 37.879 10 36.5L10 33.5C10 32.121 11.122 31 12.5 31L24.458984 31C24.802984 29.905 25.338672 28.897 26.013672 28L12.5 28C11.122 28 10 26.879 10 25.5L10 22.5C10 21.121 11.122 20 12.5 20L35.5 20C36.878 20 38 21.121 38 22.5L38 24.837891C39.062 25.301891 40.023469 25.949375 40.855469 26.734375C40.947469 26.336375 41 25.925 41 25.5L41 22.5C41 20.921493 40.326881 19.500197 39.257812 18.496094C40.325915 17.490503 41 16.070005 41 14.5L41 11.5C41 8.4802259 38.519774 6 35.5 6L12.5 6 z M 12.5 9L35.5 9C36.898226 9 38 10.101774 38 11.5L38 14.5C38 15.898226 36.898226 17 35.5 17L12.5 17C11.101774 17 10 15.898226 10 14.5L10 11.5C10 10.101774 11.101774 9 12.5 9 z M 34 26C29.589 26 26 29.589 26 34C26 38.411 29.589 42 34 42C35.665 42 37.210187 41.487281 38.492188 40.613281L43.439453 45.560547C43.732453 45.854547 44.116 46 44.5 46C44.884 46 45.267547 45.853547 45.560547 45.560547C46.145547 44.974547 46.145547 44.025453 45.560547 43.439453L40.615234 38.492188C41.488234 37.210187 42 35.665 42 34C42 29.589 38.411 26 34 26 z M 34 29C36.757 29 39 31.243 39 34C39 36.757 36.757 39 34 39C31.243 39 29 36.757 29 34C29 31.243 31.243 29 34 29 z" fill="#FFFFFF" />
</svg>